<?xml version="1.0" encoding="UTF-8" standalone="no"?>
<!-- Created with Inkscape (http://www.inkscape.org/) -->

<svg
   version="1.1"
   id="svg1"
   width="122.92989"
   height="122.54003"
   viewBox="0 0 122.92987 122.54003"
   sodipodi:docname="color-llagrima.png"
   inkscape:export-filename="color-llagrima.svg"
   inkscape:export-xdpi="96"
   inkscape:export-ydpi="96"
   xmlns:inkscape="http://www.inkscape.org/namespaces/inkscape"
   xmlns:sodipodi="http://sodipodi.sourceforge.net/DTD/sodipodi-0.dtd"
   xmlns="http://www.w3.org/2000/svg"
   xmlns:svg="http://www.w3.org/2000/svg">
  <defs
     id="defs1">
    <inkscape:path-effect
       effect="bspline"
       id="path-effect1"
       is_visible="true"
       lpeversion="1.3"
       weight="33.333333"
       steps="2"
       helper_size="0"
       apply_no_weight="true"
       apply_with_weight="true"
       only_selected="false"
       uniform="false" />
  </defs>
  <sodipodi:namedview
     id="namedview1"
     pagecolor="#ffffff"
     bordercolor="#000000"
     borderopacity="0.25"
     inkscape:showpageshadow="2"
     inkscape:pageopacity="0.0"
     inkscape:pagecheckerboard="0"
     inkscape:deskcolor="#d1d1d1" />
  <g
     inkscape:groupmode="layer"
     inkscape:label="Image"
     id="g1"
     transform="translate(-7.2027062,-8.1416782)">
    <path
       style="fill:#000000"
       d="m 9.0266836,51.567979 c 1.1588314,-2.470139 3.4764934,-6.800508 6.4650944,-11.313896 2.9886,-4.513389 6.647993,-9.20961 10.795435,-13.448529 4.147442,-4.23892 8.782673,-8.020294 12.869113,-10.429453 4.086439,-2.409159 7.623852,-3.445986 11.954272,-4.635326 4.330419,-1.18934 9.45357,-2.5311179 14.45489,-3.171524 5.001319,-0.6404061 9.880509,-0.5794162 14.363396,0.304972 4.482888,0.8843882 8.56921,2.592105 14.271952,5.946665 5.702741,3.354561 13.021524,8.355729 18.266794,13.082586 5.24527,4.726856 8.41674,9.179117 10.97839,14.058458 2.56164,4.879342 4.51332,10.185464 5.61116,15.918689 1.09784,5.733225 1.3418,11.893204 0.79287,17.931382 -0.54893,6.038178 -1.89071,11.954197 -4.11692,17.717912 -2.2262,5.763714 -5.33669,11.374785 -8.9352,15.979655 -3.59852,4.60486 -7.68484,8.20326 -12.13724,11.5578 -4.4524,3.35455 -9.2706,6.46503 -16.986081,8.14229 -7.715482,1.67726 -18.327722,1.92122 -27.872915,0.73186 -9.545193,-1.18935 -18.022786,-3.81191 -24.823347,-7.7154 C 28.177787,118.32264 23.054636,113.1385 18.968201,107.49676 14.881766,101.85502 11.832274,95.756036 9.9720388,90.48026 8.1118036,85.204485 7.4409149,80.752224 7.2579446,75.476432 7.0749743,70.20064 7.3799238,64.101652 7.6848823,60.655646 7.9898409,57.209641 8.2947901,56.416773 8.3252835,55.959338 8.3557768,55.501904 8.111817,55.379924 7.9898348,55.013971 7.8678526,54.648018 7.8678526,54.038119 9.0266836,51.567979 Z"
       id="path1"
       inkscape:path-effect="#path-effect1"
       inkscape:original-d="m 7.8678526,53.428208 c 2.3176624,-4.330368 4.6353244,-8.660737 6.9529864,-12.991105 3.659539,-4.696409 7.318932,-9.39263 10.978399,-14.088945 4.635416,-3.781525 9.270648,-7.562898 13.905972,-11.344346 3.537555,-1.03687 7.074968,-2.073698 10.612452,-3.110546 5.123355,-1.341832 10.246506,-2.6836091 15.369759,-4.0254134 4.879386,0.060992 9.758576,0.1219822 14.637865,0.1829733 4.086486,1.7077851 8.172808,3.4155021 12.259212,5.1232531 7.319079,5.00137 14.637862,10.002541 21.956802,15.003812 3.1716,4.452439 6.34307,8.904701 9.51461,13.357052 1.95175,5.306332 3.90343,10.612452 5.85514,15.918678 0.24397,6.160225 0.48793,12.320204 0.7319,18.480305 -1.34183,5.916256 -2.68361,11.832275 -4.02542,17.748412 -3.1106,5.611294 -6.22109,11.222362 -9.33163,16.833542 -4.08649,3.59855 -8.17281,7.19695 -12.25922,10.79543 -4.81839,3.11061 -9.636591,6.22109 -14.454888,9.33164 -10.612665,0.24397 -21.224905,0.48793 -31.837357,0.73189 -8.477934,-2.62267 -16.955528,-5.24523 -25.433291,-7.86785 C 28.177788,118.32264 23.054638,113.1385 17.931385,107.95426 14.881769,101.85502 11.832274,95.756036 8.7827192,89.656925 8.1118036,85.204485 7.4409149,80.752224 6.7700127,76.299873 7.0749743,70.20064 7.3799238,64.101652 7.6848793,58.002541 7.9898409,57.209641 8.2947903,56.416773 8.5997459,55.623888 8.3557766,55.501904 8.111817,55.379924 7.8678526,55.257942 c 0,-0.609924 0,-1.219823 0,-1.829734 z" />
  </g>
</svg>
