<?xml version="1.0" encoding="iso-8859-1"?>
<!-- Uploaded to: SVG Repo, www.svgrepo.com, Generator: SVG Repo Mixer Tools -->
<svg height="200px" width="400px" version="1.1" id="Layer_1" xmlns="http://www.w3.org/2000/svg" xmlns:xlink="http://www.w3.org/1999/xlink" 
	 viewBox="0 0 512 512" xml:space="preserve">
<path style="fill:#BC2A46; cursor:pointer" d="M256,147.777c-53.656,0-97.308,43.652-97.308,97.308s43.652,97.308,97.308,97.308
	s97.308-43.652,97.308-97.308S309.656,147.777,256,147.777z"/>
<path style="fill:#39B7B6;" d="M149.584,54.218h-33.601V20.616C115.983,9.23,106.753,0,95.367,0S74.751,9.23,74.751,20.616v33.602
	H41.149c-11.385,0-20.616,9.23-20.616,20.616s9.23,20.616,20.616,20.616h33.602v33.601c0,11.385,9.23,20.616,20.616,20.616
	c11.385,0,20.616-9.23,20.616-20.616V95.45h33.601c11.385,0,20.616-9.23,20.616-20.616S160.971,54.218,149.584,54.218z"/>
<path style="fill:#66CBC4;" d="M470.577,54.218h-33.601V20.616C436.976,9.23,427.746,0,416.361,0
	c-11.385,0-20.616,9.23-20.616,20.616v33.602h-33.602c-11.385,0-20.616,9.23-20.616,20.616s9.23,20.616,20.616,20.616h33.602v33.601
	c0,11.385,9.23,20.616,20.616,20.616c11.385,0,20.616-9.23,20.616-20.616V95.45h33.601c11.385,0,20.616-9.23,20.616-20.616
	S481.963,54.218,470.577,54.218z"/>
<path style="fill:#0E4151;" d="M485.865,349.497c-3.602-10.408-11.042-18.791-20.951-23.602
	c-20.449-9.93-45.169-1.373-55.099,19.072c-24.956,51.375-77.988,84.57-135.104,84.57h-37.423
	c-57.115,0-110.147-33.196-135.105-84.571c-4.813-9.907-13.195-17.345-23.601-20.947c-10.41-3.604-21.598-2.937-31.501,1.877
	c-9.907,4.812-17.346,13.194-20.948,23.601c-3.601,10.408-2.936,21.597,1.877,31.501c19.098,39.32,48.778,72.36,85.828,95.551
	C150.888,499.741,193.577,512,237.286,512h37.423c43.711,0,86.398-12.26,123.449-35.451c37.049-23.191,66.729-56.232,85.828-95.55
	C488.802,371.092,489.467,359.905,485.865,349.497z"/>
</svg>